Coordinates
version=1
nRows=10
nColumns=23
inDegrees=yes

Units are S.I. units (second, meters, Newtons, ...)
Angles are in degrees.

endheader
time	pelvis_tilt	pelvis_list	pelvis_rotation	pelvis_tx	pelvis_ty	pelvis_tz	hip_flexion_r	hip_adduction_r	hip_rotation_r	knee_angle_r	knee_angle_r_beta	ankle_angle_r	subtalar_angle_r	mtp_angle_r	hip_flexion_l	hip_adduction_l	hip_rotation_l	knee_angle_l	knee_angle_l_beta	ankle_angle_l	subtalar_angle_l	mtp_angle_l
    122.00000000	    -20.57905725	     -3.27890738	     -3.60277160	      0.04289180	      1.29700988	      0.22817346	     93.83867762	      0.82191518	      1.88985900	     95.54710621	      1.66761159	     -3.36141014	      0.00000000	      0.00000000	     46.52427784	    -11.17053972	     -7.99142834	     51.52953691	      0.89936008	      2.86908362	      0.00000000	      0.00000000
    122.00888900	    -20.52902395	     -3.28041057	     -3.51554761	      0.04222390	      1.29723815	      0.22811391	     92.88626147	      0.73833311	      1.74080075	     93.08049246	      1.62456106	     -3.49179191	      0.00000000	      0.00000000	     47.48006847	    -11.15061232	     -7.13243246	     54.89063500	      0.95802231	      4.08236772	      0.00000000	      0.00000000
    122.01777800	    -20.44153764	     -3.23038181	     -3.34283356	      0.04160371	      1.29744493	      0.22797176	     91.73010324	      0.53311356	      1.61923939	     90.50463894	      1.57960394	     -3.57117081	      0.00000000	      0.00000000	     48.48494345	    -11.03056676	     -6.32117590	     58.28833572	      1.01732337	      5.14332807	      0.00000000	      0.00000000
    122.02666700	    -20.49912214	     -3.30284952	     -3.10948723	      0.04100783	      1.29743614	      0.22778286	     90.51099863	      0.26727703	      1.32506054	     87.75543994	      1.53162136	     -3.62364359	      0.00000000	      0.00000000	     49.79363868	    -10.96199957	     -5.37663362	     61.76763123	      1.07804854	      5.96232865	      0.00000000	      0.00000000
    122.03555600	    -20.38948675	     -3.22596405	     -2.78104786	      0.04041585	      1.29748365	      0.22750189	     89.01487414	     -0.13580529	      1.13998832	     84.97585718	      1.48310849	     -3.63181992	      0.00000000	      0.00000000	     50.98561561	    -10.70557272	     -4.56966327	     65.23751352	      1.13860941	      6.69678087	      0.00000000	      0.00000000
    122.04444400	    -20.42303007	     -3.21642297	     -2.41540710	      0.03994399	      1.29734698	      0.22726246	     87.47899789	     -0.56897406	      0.83200422	     82.05283178	      1.43209208	     -3.59373925	      0.00000000	      0.00000000	     52.43836164	    -10.48688259	     -3.73295496	     68.71275984	      1.19926390	      7.09155507	      0.00000000	      0.00000000
    122.05333300	    -20.38146645	     -3.14665076	     -1.96314888	      0.03947442	      1.29722140	      0.22695121	     85.74626312	     -1.10269195	      0.52527288	     79.06924241	      1.38001862	     -3.51961704	      0.00000000	      0.00000000	     53.89545411	    -10.15521805	     -2.96525354	     72.15888342	      1.25941010	      7.35315194	      0.00000000	      0.00000000
    122.06222200	    -20.31296857	     -3.01030775	     -1.44997499	      0.03905028	      1.29709295	      0.22665466	     83.86129580	     -1.70327270	      0.23285950	     76.02384581	      1.32686642	     -3.38732191	      0.00000000	      0.00000000	     55.38324107	     -9.72957225	     -2.26783163	     75.52790486	      1.31821062	      7.42790504	      0.00000000	      0.00000000
    122.07111100	    -20.18349515	     -2.77287503	     -0.85914678	      0.03865723	      1.29684913	      0.22646616	     81.84304474	     -2.38518473	     -0.01199515	     72.99834615	      1.27406149	     -3.20569168	      0.00000000	      0.00000000	     56.88105039	     -9.20686647	     -1.70050942	     78.86781430	      1.37650303	      7.32076687	      0.00000000	      0.00000000
    122.08000000	    -20.21678706	     -2.73272977	     -0.26853614	      0.03843896	      1.29669141	      0.22618154	     79.76074103	     -3.02462186	     -0.56686287	     69.71055195	      1.21667865	     -3.03985484	      0.00000000	      0.00000000	     58.62006090	     -8.80088234	     -1.02903256	     82.07533054	      1.43248475	      7.09700610	      0.00000000	      0.00000000
